<?xml version="1.0" encoding="UTF-8" standalone="no"?>
<!-- Created with Inkscape (http://www.inkscape.org/) -->

<svg
   xmlns:dc="http://purl.org/dc/elements/1.1/"
   xmlns:cc="http://creativecommons.org/ns#"
   xmlns:rdf="http://www.w3.org/1999/02/22-rdf-syntax-ns#"
   xmlns:svg="http://www.w3.org/2000/svg"
   xmlns="http://www.w3.org/2000/svg"
   xmlns:sodipodi="http://sodipodi.sourceforge.net/DTD/sodipodi-0.dtd"
   xmlns:inkscape="http://www.inkscape.org/namespaces/inkscape"
   width="210mm"
   height="297mm"
   viewBox="0 0 210 297"
   version="1.1"
   id="svg921"
   inkscape:version="0.92.2 (5c3e80d, 2017-08-06)"
   sodipodi:docname="shirt-white.svg">
  <defs
     id="defs915" />
  <sodipodi:namedview
     id="base"
     pagecolor="#ffffff"
     bordercolor="#666666"
     borderopacity="1.0"
     inkscape:pageopacity="0.0"
     inkscape:pageshadow="2"
     inkscape:zoom="0.49497475"
     inkscape:cx="399.14636"
     inkscape:cy="697.36523"
     inkscape:document-units="mm"
     inkscape:current-layer="layer1"
     showgrid="false"
     inkscape:window-width="1920"
     inkscape:window-height="1017"
     inkscape:window-x="-8"
     inkscape:window-y="-8"
     inkscape:window-maximized="1"
     inkscape:snap-global="false" />
  <metadata
     id="metadata918">
    <rdf:RDF>
      <cc:Work
         rdf:about="">
        <dc:format>image/svg+xml</dc:format>
        <dc:type
           rdf:resource="http://purl.org/dc/dcmitype/StillImage" />
        <dc:title />
      </cc:Work>
    </rdf:RDF>
  </metadata>
  <g
     inkscape:label="Layer 1"
     inkscape:groupmode="layer"
     id="layer1">
    <g
       style="fill:#d86523;fill-opacity:1"
       id="g1075"
       transform="matrix(2.3995047,0.79098301,-0.44654168,4.2503701,-141.46799,-248.63714)" />
    <g
       id="lower-arm">
      <path
         sodipodi:nodetypes="csscccc"
         inkscape:connector-curvature="0"
         id="path886"
         d="m 2.8797304,176.22134 c -2.78864477,-14.55464 -6.2869467,-28.39126 -6.2869467,-28.39126 -10.9155477,0.75003 -9.5860547,5.20306 -42.4272377,7.31516 -1.424657,0.0916 -4.426691,13.87399 7.300751,26.11978 -2.710667,7.78334 9.258584,42.45356 9.981661,41.97536 l 37.9179533,-6.97954 z"
         style="opacity:1;fill:#ff8844;fill-opacity:1;stroke:none;stroke-width:0.18287861;stroke-linecap:butt;stroke-miterlimit:4;stroke-dasharray:none;stroke-opacity:1" />
      <path
         style="opacity:1;fill:#ce520b;fill-opacity:1;stroke:none;stroke-width:0.05636057;stroke-linecap:butt;stroke-miterlimit:4;stroke-dasharray:none;stroke-opacity:1"
         d="m 0.74725266,178.0218 c 2.63935634,15.25933 6.20432064,33.63449 5.17031444,33.62682 -1.0340056,-0.008 -7.1454731,-13.3946 -7.2616854,-30.93557 -0.1162141,-17.54098 -5.9709718,-32.06026 -4.9369673,-32.05261 1.0340029,0.008 4.0386591,12.07665 7.02833826,29.36136 z"
         id="path1080"
         inkscape:connector-curvature="0"
         sodipodi:nodetypes="scscs" />
      <path
         style="opacity:1;fill:#ce520b;fill-opacity:1;stroke:none;stroke-width:0.05675192;stroke-linecap:butt;stroke-miterlimit:4;stroke-dasharray:none;stroke-opacity:1"
         d="m -45.666745,146.25999 0.719538,5.27803 c 3.077439,2.17267 9.008964,1.17016 6.810042,1.14044 -2.281064,1.78482 -4.971183,6.38697 -10.047965,0.48356 -0.497881,-3.05528 0.14103,-5.46911 2.518385,-6.90203 z"
         id="path1105"
         inkscape:connector-curvature="0"
         sodipodi:nodetypes="ccccc" />
      <path
         style="opacity:1;fill:#ce520b;fill-opacity:1;stroke:none;stroke-width:0.05675192;stroke-linecap:butt;stroke-miterlimit:4;stroke-dasharray:none;stroke-opacity:1"
         d="m -39.236173,180.10359 2.73288,4.53282 c 5.681615,2.30719 9.626021,-0.10445 7.821195,1.15641 l -8.316558,1.30889 c -2.26514,-2.10992 -3.238812,-4.40921 -2.237517,-6.99812 z"
         id="path1113"
         inkscape:connector-curvature="0"
         sodipodi:nodetypes="ccccc" />
      <path
         sodipodi:nodetypes="ccccc"
         inkscape:connector-curvature="0"
         id="path1115"
         d="m -42.664821,175.60356 0.726985,0.97371 c 3.361941,0.0915 14.421962,-7.03135 22.25631,-10.74144 1.105226,0.15834 -17.527809,10.06303 -22.257683,12.41912 -2.26514,-2.10992 -1.726907,-0.0625 -0.725612,-2.65139 z"
         style="opacity:1;fill:#ce520b;fill-opacity:1;stroke:none;stroke-width:0.05675192;stroke-linecap:butt;stroke-miterlimit:4;stroke-dasharray:none;stroke-opacity:1" />
    </g>
    <g
       id="upper-arm">
      <path
         sodipodi:nodetypes="cccsssssssscscsc"
         inkscape:connector-curvature="0"
         id="path856"
         d="m 55.296799,61.573275 c -3.695752,9.436105 -25.115168,46.269175 -44.880531,67.485075 -0.248149,9.21442 -4.6172486,10.46296 -9.97110279,16.67658 -4.95894531,6.86301 -6.30193681,5.64261 -6.30193681,5.64261 -10.2897394,-2.65584 -48.8549064,18.64735 -39.5344924,-6.97248 0,0 3.650605,-12.42224 9.383543,-31.90938 0.310451,-1.05527 -1.332352,-4.65866 0.351946,-5.64362 3.577424,-2.09203 3.685768,-7.113696 4.29506,-9.225244 0.737747,-2.556721 -1.702393,-3.515119 -0.908647,-6.051456 0.545166,-1.742026 5.082356,-4.686042 5.965949,-7.622573 0.924478,-3.072409 -1.528267,-0.962407 -1.131665,-3.951956 2.095451,-15.795306 7.033631,-16.282776 7.636521,-17.855053 2.799582,-6.967878 1.684241,-10.672542 4.734833,-15.900975 12.1493551,-20.822867 30.796235,-30.066944 51.887716,-21.413476 19.215797,7.590113 23.722052,23.339468 18.472831,36.74182 z"
         style="opacity:1;fill:#ff8844;fill-opacity:1;stroke:none;stroke-width:0.17762484;stroke-linecap:butt;stroke-miterlimit:4;stroke-dasharray:none;stroke-opacity:1" />
      <path
         sodipodi:nodetypes="scscs"
         inkscape:connector-curvature="0"
         id="path1077"
         d="M 19.337652,111.10911 C 6.3096952,134.19854 -7.0994265,147.08402 -8.2811685,146.41723 -9.4629115,145.75045 2.4082046,130.27198 15.43616,107.18256 28.464118,84.093129 27.132165,52.686816 28.313909,53.353599 c 1.181741,0.666788 4.0517,34.666078 -8.976257,57.755511 z"
         style="opacity:1;fill:#ce520b;fill-opacity:1;stroke:none;stroke-width:0.079375;stroke-linecap:butt;stroke-miterlimit:4;stroke-dasharray:none;stroke-opacity:1" />
      <path
         sodipodi:nodetypes="ccccc"
         inkscape:connector-curvature="0"
         id="rect1102"
         d="m -30.432382,96.815127 0.719538,5.278033 c 3.077439,5.30408 6.336268,5.79304 4.137346,5.68402 l -7.375269,-4.06002 c -0.497881,-3.05528 0.14103,-5.469117 2.518385,-6.902033 z"
         style="opacity:1;fill:#ce520b;fill-opacity:1;stroke:none;stroke-width:0.05675192;stroke-linecap:butt;stroke-miterlimit:4;stroke-dasharray:none;stroke-opacity:1" />
      <path
         style="opacity:1;fill:#ce520b;fill-opacity:1;stroke:none;stroke-width:0.05675192;stroke-linecap:butt;stroke-miterlimit:4;stroke-dasharray:none;stroke-opacity:1"
         d="m -34.660057,110.78471 -0.287471,0.72889 c -1.960272,4.97032 7.561914,5.63648 5.362987,5.52746 -3.013598,-8.7e-4 -4.950471,-0.62463 -6.713811,-3.02059 -0.497881,-3.05528 1.638295,-3.23576 1.638295,-3.23576 z"
         id="path1107"
         inkscape:connector-curvature="0"
         sodipodi:nodetypes="csccc" />
      <path
         style="opacity:1;fill:#ce520b;fill-opacity:1;stroke:none;stroke-width:0.05675192;stroke-linecap:butt;stroke-miterlimit:4;stroke-dasharray:none;stroke-opacity:1"
         d="m -20.982977,63.175246 -0.981355,4.711069 c -1.631441,5.30408 20.6468374,13.163575 20.5793104,13.054555 -8.9951154,-1.024394 -15.5865834,-5.894623 -22.1163404,-10.863591 -0.497881,-3.05528 0.14103,-5.469117 2.518385,-6.902033 z"
         id="path1109"
         inkscape:connector-curvature="0"
         sodipodi:nodetypes="ccccc" />
      <path
         sodipodi:nodetypes="ccccc"
         inkscape:connector-curvature="0"
         id="path1111"
         d="m -26.326449,81.349574 0.568035,3.870809 C -28.368643,91.082997 7.2755514,99.770121 7.1675114,99.649621 -7.2242485,98.517353 -17.770286,93.134276 -28.21759,87.642062 c -0.796586,-3.377009 -1.912514,-4.708682 1.891141,-6.292488 z"
         style="opacity:1;fill:#ce520b;fill-opacity:1;stroke:none;stroke-width:0.07547008;stroke-linecap:butt;stroke-miterlimit:4;stroke-dasharray:none;stroke-opacity:1" />
      <path
         style="opacity:1;fill:#ce520b;fill-opacity:1;stroke:none;stroke-width:0.06516095;stroke-linecap:butt;stroke-miterlimit:4;stroke-dasharray:none;stroke-opacity:1"
         d="m 12.765118,124.55139 -2.554031,2.18438 c -1.7260981,5.3973 -28.672122,-10.38713 -28.536842,-10.40075 9.5276797,7.92336 19.10136077,10.75771 28.676225,13.46142 2.41401,-1.72454 3.860845,-1.92198 2.414648,-5.24505 z"
         id="path1119"
         inkscape:connector-curvature="0"
         sodipodi:nodetypes="ccccc" />
      <path
         sodipodi:nodetypes="ccccc"
         inkscape:connector-curvature="0"
         id="path1121"
         d="m 21.45857,113.40109 -2.554031,2.18438 c -1.726098,5.3973 -28.6721217,-10.38713 -28.5368417,-10.40075 9.52767979,7.92336 19.1013609,10.75771 28.6762247,13.46142 2.41401,-1.72454 3.860845,-1.92198 2.414648,-5.24505 z"
         style="opacity:1;fill:#ce520b;fill-opacity:1;stroke:none;stroke-width:0.06516095;stroke-linecap:butt;stroke-miterlimit:4;stroke-dasharray:none;stroke-opacity:1" />
    </g>
    <g
       id="torso">
      <path
         sodipodi:nodetypes="cccscscsccscscscccccccccccsscscc"
         style="opacity:1;fill:#ff8844;fill-opacity:1;stroke:none;stroke-width:0.31559995;stroke-linecap:butt;stroke-miterlimit:4;stroke-dasharray:none;stroke-opacity:1"
         d="M 114.98109,7.0879392 C 113.97101,19.334192 98.483847,46.66616 91.099864,62.396708 l 6.837309,0.241845 c -6.062921,10.037389 -11.418747,19.540722 -8.51731,29.031303 2.901439,9.490574 8.218289,20.422264 6.063197,30.033304 -1.124419,5.01453 -3.930211,13.71975 -4.793507,23.84971 -0.685289,8.04126 2.132275,25.38666 4.747514,30.05191 4.993053,8.907 1.498087,14.26612 -0.227893,25.60619 -1.725978,11.34006 -4.151988,23.60064 -2.168343,36.20709 l -1.038696,0.16382 c -2.020308,-12.83944 0.999252,-25.15254 2.16576,-36.52904 1.199367,-11.69699 1.28015,-22.54602 -2.1053,-30.03744 -2.90163,-5.17613 -4.434768,-13.99989 -3.744989,-24.20989 0.689779,-10.21 3.672612,-21.74876 4.81521,-26.84436 2.061596,-9.19409 -5.953855,-18.2359 -8.876461,-27.795717 -2.922606,-9.559821 -7.917376,-19.69708 -1.652095,-30.069482 l 2.845821,0.100769 C 79.99174,46.165722 67.8333,19.061181 67.976728,8.1007976 L 23.075077,22.048266 c -3.989629,40.498656 -4.88722,103.015434 -0.346232,117.190774 -1.425848,4.31731 -1.102748,2.91948 -2.318205,18.57148 0.448257,-1.46341 0.02702,25.89521 3.495394,34.43252 -2.284327,19.75264 3.473414,26.34096 3.683496,45.54399 l 128.13481,0.27286 3.46698,-5.27875 c 0.33171,-18.3226 3.83936,-13.88479 2.76313,-22.93607 -0.49056,-4.12578 -1.96869,-8.77285 -0.26613,-18.31568 1.32165,-7.40784 -2.62918,-15.63605 0.53433,-28.69902 0.42933,-1.77281 -0.17824,-18.93963 0.007,-24.90081 0.27273,-8.78967 2.27228,-16.08072 2.75746,-24.53907 1.88023,-32.778776 0.85094,-59.82268 3.43287,-87.161527 C 149.02546,22.220947 132.56149,13.81712 114.98109,7.0879392 Z"
         id="path858"
         inkscape:connector-curvature="0" />
      <path
         sodipodi:nodetypes="cssscssscc"
         inkscape:connector-curvature="0"
         id="path1130"
         d="m 79.809401,62.602878 c 1.276118,9.646167 -0.242216,11.620926 1.606518,19.269634 2.114581,8.748591 9.90089,20.649148 11.403404,28.388438 3.264891,16.81712 -10.20941,28.4025 1.572531,61.96617 9.994726,28.47235 -4.866681,33.67181 -2.733584,65.60138 -10.715224,-0.25633 0.553659,-14.04371 -1.471281,-41.27092 -0.334285,-4.49478 -0.438725,-12.22142 -0.997846,-17.15091 -7.944432,-70.04219 2.774051,-55.48381 -5.230197,-73.47878 C 71.19016,77.2214 75.052366,71.348572 75.565513,73.463311 Z"
         style="opacity:1;fill:#ce520b;fill-opacity:1;stroke:none;stroke-width:0.05785398;stroke-linecap:butt;stroke-miterlimit:4;stroke-dasharray:none;stroke-opacity:1" />
      <g
         transform="matrix(2.9342011,0,0,2.6171273,-413.98976,-86.582118)"
         id="g915">
        <circle
           style="opacity:1;fill:#646464;fill-opacity:1;stroke:none;stroke-width:0.079375;stroke-linecap:butt;stroke-miterlimit:4;stroke-dasharray:none;stroke-opacity:1"
           id="path900"
           cx="167.71164"
           cy="61.001007"
           r="0.93544334" />
        <ellipse
           style="opacity:1;fill:#ffffff;fill-opacity:1;stroke:none;stroke-width:0.06231786;stroke-linecap:butt;stroke-miterlimit:4;stroke-dasharray:none;stroke-opacity:1"
           id="path902"
           cx="167.41331"
           cy="60.732723"
           rx="0.20281613"
           ry="0.16603017" />
        <ellipse
           ry="0.16603017"
           rx="0.20281613"
           cy="61.287876"
           cx="167.41331"
           id="ellipse904"
           style="opacity:1;fill:#ffffff;fill-opacity:1;stroke:none;stroke-width:0.06231786;stroke-linecap:butt;stroke-miterlimit:4;stroke-dasharray:none;stroke-opacity:1" />
        <ellipse
           style="opacity:1;fill:#ffffff;fill-opacity:1;stroke:none;stroke-width:0.06231786;stroke-linecap:butt;stroke-miterlimit:4;stroke-dasharray:none;stroke-opacity:1"
           id="ellipse906"
           cx="167.95665"
           cy="61.287876"
           rx="0.20281613"
           ry="0.16603017" />
        <ellipse
           ry="0.16603017"
           rx="0.20281613"
           cy="60.756348"
           cx="167.95665"
           id="ellipse908"
           style="opacity:1;fill:#ffffff;fill-opacity:1;stroke:none;stroke-width:0.06231786;stroke-linecap:butt;stroke-miterlimit:4;stroke-dasharray:none;stroke-opacity:1" />
      </g>
      <path
         sodipodi:nodetypes="ccccc"
         inkscape:connector-curvature="0"
         id="rect948"
         d="m 71.986569,39.033196 h 9.282998 L 87.458234,70.145447 67.767019,50.32393 Z"
         style="opacity:1;fill:#000000;fill-opacity:1;stroke:none;stroke-width:0.31559995;stroke-linecap:butt;stroke-miterlimit:4;stroke-dasharray:none;stroke-opacity:1" />
      <path
         style="opacity:1;fill:#ce520b;fill-opacity:0.65326634;stroke:none;stroke-width:0.31559995;stroke-linecap:butt;stroke-miterlimit:4;stroke-dasharray:none;stroke-opacity:1"
         d="m 71.986569,39.033196 h 9.282998 L 87.458234,70.145447 67.767019,50.32393 Z"
         id="path1199"
         inkscape:connector-curvature="0"
         sodipodi:nodetypes="ccccc" />
      <path
         sodipodi:nodetypes="ccccc"
         inkscape:connector-curvature="0"
         id="rect945"
         d="M 67.204432,3.1537033 C 68.604353,15.613888 68.46719,23.904981 81.832197,39.033196 79.129312,46.57496 74.895407,59.776511 67.767019,63.370999 56.834065,48.393062 49.549526,30.722726 49.200978,12.437192 64.042107,6.5389942 64.162009,7.2165254 67.204432,3.1537033 Z"
         style="opacity:1;fill:#ce520b;fill-opacity:1;stroke:none;stroke-width:0.31559995;stroke-linecap:butt;stroke-miterlimit:4;stroke-dasharray:none;stroke-opacity:1" />
      <path
         style="opacity:1;fill:#000000;fill-opacity:1;stroke:none;stroke-width:0.31559995;stroke-linecap:butt;stroke-miterlimit:4;stroke-dasharray:none;stroke-opacity:1"
         d="m 104.89906,45.807645 h -9.283 L 86.895647,69.39274 112.21293,50.32393 Z"
         id="path973"
         inkscape:connector-curvature="0"
         sodipodi:nodetypes="ccccc" />
      <path
         sodipodi:nodetypes="ccccc"
         inkscape:connector-curvature="0"
         id="path1201"
         d="m 104.89906,45.807645 h -9.283 L 86.895647,69.39274 112.21293,50.32393 Z"
         style="opacity:1;fill:#ce520b;fill-opacity:0.57286431;stroke:none;stroke-width:0.31559995;stroke-linecap:butt;stroke-miterlimit:4;stroke-dasharray:none;stroke-opacity:1" />
      <path
         style="opacity:1;fill:#ce520b;fill-opacity:1;stroke:none;stroke-width:0.31559995;stroke-linecap:butt;stroke-miterlimit:4;stroke-dasharray:none;stroke-opacity:1"
         d="M 112.77552,3.1537033 C 111.37561,15.613888 109.54365,30.930345 96.178645,46.058522 98.881531,53.600325 105.08455,59.776511 112.21293,63.370999 123.14589,48.393062 130.43043,30.722726 130.77899,12.437192 115.93785,6.5389942 115.81795,7.2165254 112.77552,3.1537033 Z"
         id="path975"
         inkscape:connector-curvature="0"
         sodipodi:nodetypes="ccccc" />
      <g
         id="g989"
         transform="matrix(2.9342011,0,0,2.6171273,-406.0086,-60.070858)">
        <circle
           r="0.93544334"
           cy="61.001007"
           cx="167.71164"
           id="circle979"
           style="opacity:1;fill:#646464;fill-opacity:1;stroke:none;stroke-width:0.079375;stroke-linecap:butt;stroke-miterlimit:4;stroke-dasharray:none;stroke-opacity:1" />
        <ellipse
           ry="0.16603017"
           rx="0.20281613"
           cy="60.732723"
           cx="167.41331"
           id="ellipse981"
           style="opacity:1;fill:#ffffff;fill-opacity:1;stroke:none;stroke-width:0.06231786;stroke-linecap:butt;stroke-miterlimit:4;stroke-dasharray:none;stroke-opacity:1" />
        <ellipse
           style="opacity:1;fill:#ffffff;fill-opacity:1;stroke:none;stroke-width:0.06231786;stroke-linecap:butt;stroke-miterlimit:4;stroke-dasharray:none;stroke-opacity:1"
           id="ellipse983"
           cx="167.41331"
           cy="61.287876"
           rx="0.20281613"
           ry="0.16603017" />
        <ellipse
           ry="0.16603017"
           rx="0.20281613"
           cy="61.287876"
           cx="167.95665"
           id="ellipse985"
           style="opacity:1;fill:#ffffff;fill-opacity:1;stroke:none;stroke-width:0.06231786;stroke-linecap:butt;stroke-miterlimit:4;stroke-dasharray:none;stroke-opacity:1" />
        <ellipse
           style="opacity:1;fill:#ffffff;fill-opacity:1;stroke:none;stroke-width:0.06231786;stroke-linecap:butt;stroke-miterlimit:4;stroke-dasharray:none;stroke-opacity:1"
           id="ellipse987"
           cx="167.95665"
           cy="60.756348"
           rx="0.20281613"
           ry="0.16603017" />
      </g>
      <g
         transform="matrix(2.9342011,0,0,2.6171273,-402.40356,-24.048367)"
         id="g1001">
        <circle
           style="opacity:1;fill:#646464;fill-opacity:1;stroke:none;stroke-width:0.079375;stroke-linecap:butt;stroke-miterlimit:4;stroke-dasharray:none;stroke-opacity:1"
           id="circle991"
           cx="167.71164"
           cy="61.001007"
           r="0.93544334" />
        <ellipse
           style="opacity:1;fill:#ffffff;fill-opacity:1;stroke:none;stroke-width:0.06231786;stroke-linecap:butt;stroke-miterlimit:4;stroke-dasharray:none;stroke-opacity:1"
           id="ellipse993"
           cx="167.41331"
           cy="60.732723"
           rx="0.20281613"
           ry="0.16603017" />
        <ellipse
           ry="0.16603017"
           rx="0.20281613"
           cy="61.287876"
           cx="167.41331"
           id="ellipse995"
           style="opacity:1;fill:#ffffff;fill-opacity:1;stroke:none;stroke-width:0.06231786;stroke-linecap:butt;stroke-miterlimit:4;stroke-dasharray:none;stroke-opacity:1" />
        <ellipse
           style="opacity:1;fill:#ffffff;fill-opacity:1;stroke:none;stroke-width:0.06231786;stroke-linecap:butt;stroke-miterlimit:4;stroke-dasharray:none;stroke-opacity:1"
           id="ellipse997"
           cx="167.95665"
           cy="61.287876"
           rx="0.20281613"
           ry="0.16603017" />
        <ellipse
           ry="0.16603017"
           rx="0.20281613"
           cy="60.756348"
           cx="167.95665"
           id="ellipse999"
           style="opacity:1;fill:#ffffff;fill-opacity:1;stroke:none;stroke-width:0.06231786;stroke-linecap:butt;stroke-miterlimit:4;stroke-dasharray:none;stroke-opacity:1" />
      </g>
      <g
         id="g1013"
         transform="matrix(2.9342011,0,0,2.6171273,-402.13014,8.5963373)">
        <circle
           r="0.93544334"
           cy="61.001007"
           cx="167.71164"
           id="circle1003"
           style="opacity:1;fill:#646464;fill-opacity:1;stroke:none;stroke-width:0.079375;stroke-linecap:butt;stroke-miterlimit:4;stroke-dasharray:none;stroke-opacity:1" />
        <ellipse
           ry="0.16603017"
           rx="0.20281613"
           cy="60.732723"
           cx="167.41331"
           id="ellipse1005"
           style="opacity:1;fill:#ffffff;fill-opacity:1;stroke:none;stroke-width:0.06231786;stroke-linecap:butt;stroke-miterlimit:4;stroke-dasharray:none;stroke-opacity:1" />
        <ellipse
           style="opacity:1;fill:#ffffff;fill-opacity:1;stroke:none;stroke-width:0.06231786;stroke-linecap:butt;stroke-miterlimit:4;stroke-dasharray:none;stroke-opacity:1"
           id="ellipse1007"
           cx="167.41331"
           cy="61.287876"
           rx="0.20281613"
           ry="0.16603017" />
        <ellipse
           ry="0.16603017"
           rx="0.20281613"
           cy="61.287876"
           cx="167.95665"
           id="ellipse1009"
           style="opacity:1;fill:#ffffff;fill-opacity:1;stroke:none;stroke-width:0.06231786;stroke-linecap:butt;stroke-miterlimit:4;stroke-dasharray:none;stroke-opacity:1" />
        <ellipse
           style="opacity:1;fill:#ffffff;fill-opacity:1;stroke:none;stroke-width:0.06231786;stroke-linecap:butt;stroke-miterlimit:4;stroke-dasharray:none;stroke-opacity:1"
           id="ellipse1011"
           cx="167.95665"
           cy="60.756348"
           rx="0.20281613"
           ry="0.16603017" />
      </g>
      <g
         transform="matrix(2.9342011,0,0,2.6171273,-398.15191,40.351685)"
         id="g1025">
        <circle
           style="opacity:1;fill:#646464;fill-opacity:1;stroke:none;stroke-width:0.079375;stroke-linecap:butt;stroke-miterlimit:4;stroke-dasharray:none;stroke-opacity:1"
           id="circle1015"
           cx="167.71164"
           cy="61.001007"
           r="0.93544334" />
        <ellipse
           style="opacity:1;fill:#ffffff;fill-opacity:1;stroke:none;stroke-width:0.06231786;stroke-linecap:butt;stroke-miterlimit:4;stroke-dasharray:none;stroke-opacity:1"
           id="ellipse1017"
           cx="167.41331"
           cy="60.732723"
           rx="0.20281613"
           ry="0.16603017" />
        <ellipse
           ry="0.16603017"
           rx="0.20281613"
           cy="61.287876"
           cx="167.41331"
           id="ellipse1019"
           style="opacity:1;fill:#ffffff;fill-opacity:1;stroke:none;stroke-width:0.06231786;stroke-linecap:butt;stroke-miterlimit:4;stroke-dasharray:none;stroke-opacity:1" />
        <ellipse
           style="opacity:1;fill:#ffffff;fill-opacity:1;stroke:none;stroke-width:0.06231786;stroke-linecap:butt;stroke-miterlimit:4;stroke-dasharray:none;stroke-opacity:1"
           id="ellipse1021"
           cx="167.95665"
           cy="61.287876"
           rx="0.20281613"
           ry="0.16603017" />
        <ellipse
           ry="0.16603017"
           rx="0.20281613"
           cy="60.756348"
           cx="167.95665"
           id="ellipse1023"
           style="opacity:1;fill:#ffffff;fill-opacity:1;stroke:none;stroke-width:0.06231786;stroke-linecap:butt;stroke-miterlimit:4;stroke-dasharray:none;stroke-opacity:1" />
      </g>
      <g
         id="g1037"
         transform="matrix(2.9342011,0,0,2.6171273,-400.2654,69.978046)">
        <circle
           r="0.93544334"
           cy="61.001007"
           cx="167.71164"
           id="circle1027"
           style="opacity:1;fill:#646464;fill-opacity:1;stroke:none;stroke-width:0.079375;stroke-linecap:butt;stroke-miterlimit:4;stroke-dasharray:none;stroke-opacity:1" />
        <ellipse
           ry="0.16603017"
           rx="0.20281613"
           cy="60.732723"
           cx="167.41331"
           id="ellipse1029"
           style="opacity:1;fill:#ffffff;fill-opacity:1;stroke:none;stroke-width:0.06231786;stroke-linecap:butt;stroke-miterlimit:4;stroke-dasharray:none;stroke-opacity:1" />
        <ellipse
           style="opacity:1;fill:#ffffff;fill-opacity:1;stroke:none;stroke-width:0.06231786;stroke-linecap:butt;stroke-miterlimit:4;stroke-dasharray:none;stroke-opacity:1"
           id="ellipse1031"
           cx="167.41331"
           cy="61.287876"
           rx="0.20281613"
           ry="0.16603017" />
        <ellipse
           ry="0.16603017"
           rx="0.20281613"
           cy="61.287876"
           cx="167.95665"
           id="ellipse1033"
           style="opacity:1;fill:#ffffff;fill-opacity:1;stroke:none;stroke-width:0.06231786;stroke-linecap:butt;stroke-miterlimit:4;stroke-dasharray:none;stroke-opacity:1" />
        <ellipse
           style="opacity:1;fill:#ffffff;fill-opacity:1;stroke:none;stroke-width:0.06231786;stroke-linecap:butt;stroke-miterlimit:4;stroke-dasharray:none;stroke-opacity:1"
           id="ellipse1035"
           cx="167.95665"
           cy="60.756348"
           rx="0.20281613"
           ry="0.16603017" />
      </g>
      <path
         sodipodi:nodetypes="cccc"
         inkscape:connector-curvature="0"
         id="rect1125"
         d="m 22.268171,136.4004 c 17.531572,-0.59495 38.353264,2.75824 51.404761,-3.2128 -15.039467,8.11656 -33.485832,5.33105 -50.837797,6.04762 z"
         style="opacity:1;fill:#ce520b;fill-opacity:1;stroke:none;stroke-width:0.079375;stroke-linecap:butt;stroke-miterlimit:4;stroke-dasharray:none;stroke-opacity:1" />
      <path
         style="opacity:1;fill:#ce520b;fill-opacity:1;stroke:none;stroke-width:0.079375;stroke-linecap:butt;stroke-miterlimit:4;stroke-dasharray:none;stroke-opacity:1"
         d="m 21.023536,172.82734 c 17.531572,-0.59495 38.353264,2.75824 51.404761,-3.2128 -15.039467,8.11656 -33.485832,5.33105 -50.837797,6.04762 z"
         id="path1128"
         inkscape:connector-curvature="0"
         sodipodi:nodetypes="cccc" />
      <path
         style="opacity:1;fill:#ce520b;fill-opacity:1;stroke:none;stroke-width:0.05785398;stroke-linecap:butt;stroke-miterlimit:4;stroke-dasharray:none;stroke-opacity:1"
         d="m 24.014921,211.96951 c 17.531572,-0.31607 38.353264,1.46532 51.404761,-1.7068 -15.039467,4.31192 -33.485832,2.83212 -50.837797,3.2128 z"
         id="path1132"
         inkscape:connector-curvature="0"
         sodipodi:nodetypes="cccc" />
      <path
         style="opacity:1;fill:#ce520b;fill-opacity:1;stroke:none;stroke-width:0.079375;stroke-linecap:butt;stroke-miterlimit:4;stroke-dasharray:none;stroke-opacity:1"
         d="m 162.9346,135.41517 c -17.53157,-0.59495 -38.35326,2.75824 -51.40476,-3.2128 15.03947,8.11656 33.48583,5.33105 50.8378,6.04762 z"
         id="path1141"
         inkscape:connector-curvature="0"
         sodipodi:nodetypes="cccc" />
      <path
         sodipodi:nodetypes="cccc"
         inkscape:connector-curvature="0"
         id="path1143"
         d="m 161.59826,168.30735 c -17.53158,0.59495 -53.47232,3.28938 -66.523808,9.26042 15.155278,-7.90193 51.176738,-8.04743 65.956838,-12.09524 z"
         style="opacity:1;fill:#ce520b;fill-opacity:1;stroke:none;stroke-width:0.079375;stroke-linecap:butt;stroke-miterlimit:4;stroke-dasharray:none;stroke-opacity:1" />
      <path
         style="opacity:1;fill:#ce520b;fill-opacity:1;stroke:none;stroke-width:0.05785398;stroke-linecap:butt;stroke-miterlimit:4;stroke-dasharray:none;stroke-opacity:1"
         d="m 160.27534,183.81028 c -17.53157,-0.31607 -38.35326,1.46532 -51.40476,-1.7068 15.03947,4.31192 33.48583,2.83212 50.8378,3.2128 z"
         id="path1145"
         inkscape:connector-curvature="0"
         sodipodi:nodetypes="cccc" />
      <path
         sodipodi:nodetypes="cccc"
         inkscape:connector-curvature="0"
         id="path1147"
         d="m 159.14141,198.47307 c -17.53157,-0.31607 -38.35326,1.46532 -51.40476,-1.7068 15.03947,4.31192 33.48583,2.83212 50.8378,3.2128 z"
         style="opacity:1;fill:#ce520b;fill-opacity:1;stroke:none;stroke-width:0.05785398;stroke-linecap:butt;stroke-miterlimit:4;stroke-dasharray:none;stroke-opacity:1" />
      <path
         style="opacity:1;fill:#ce520b;fill-opacity:1;stroke:none;stroke-width:0.04094436;stroke-linecap:butt;stroke-miterlimit:4;stroke-dasharray:none;stroke-opacity:1"
         d="m 158.60687,229.42622 c -17.53157,-0.15831 -38.35326,0.73393 -51.40476,-0.85488 15.03947,2.15969 33.48583,1.41851 50.8378,1.60918 z"
         id="path1149"
         inkscape:connector-curvature="0"
         sodipodi:nodetypes="cccc" />
      <path
         sodipodi:nodetypes="cccc"
         inkscape:connector-curvature="0"
         id="path1151"
         d="m 159.67595,232.09892 c -17.53157,-0.15831 -38.35326,0.73393 -51.40476,-0.85488 15.03947,2.15969 33.48583,1.41851 50.8378,1.60918 z"
         style="opacity:1;fill:#ce520b;fill-opacity:1;stroke:none;stroke-width:0.04094436;stroke-linecap:butt;stroke-miterlimit:4;stroke-dasharray:none;stroke-opacity:1" />
      <path
         style="opacity:1;fill:#ce520b;fill-opacity:1;stroke:none;stroke-width:0.04094436;stroke-linecap:butt;stroke-miterlimit:4;stroke-dasharray:none;stroke-opacity:1"
         d="m 27.823062,229.96076 c 17.53157,-0.15831 38.35326,0.73393 51.40476,-0.85488 -15.03947,2.15969 -33.48583,1.41851 -50.8378,1.60918 z"
         id="path1153"
         inkscape:connector-curvature="0"
         sodipodi:nodetypes="cccc" />
      <path
         sodipodi:nodetypes="cccc"
         inkscape:connector-curvature="0"
         id="path1155"
         d="m 27.021253,232.63346 c 17.53157,-0.15831 38.35326,0.73393 51.40476,-0.85488 -15.03947,2.15969 -33.48583,1.41851 -50.8378,1.60918 z"
         style="opacity:1;fill:#ce520b;fill-opacity:1;stroke:none;stroke-width:0.04094436;stroke-linecap:butt;stroke-miterlimit:4;stroke-dasharray:none;stroke-opacity:1" />
    </g>
  </g>
</svg>
