<?xml version="1.0" encoding="UTF-8" standalone="no"?>
<!-- Created with Inkscape (http://www.inkscape.org/) -->

<svg
   xmlns:dc="http://purl.org/dc/elements/1.1/"
   xmlns:cc="http://creativecommons.org/ns#"
   xmlns:rdf="http://www.w3.org/1999/02/22-rdf-syntax-ns#"
   xmlns:svg="http://www.w3.org/2000/svg"
   xmlns="http://www.w3.org/2000/svg"
   xmlns:sodipodi="http://sodipodi.sourceforge.net/DTD/sodipodi-0.dtd"
   xmlns:inkscape="http://www.inkscape.org/namespaces/inkscape"
   width="210mm"
   height="297mm"
   viewBox="0 0 210 297"
   version="1.1"
   id="svg1451"
   inkscape:version="0.92.2 (5c3e80d, 2017-08-06)"
   sodipodi:docname="shorts-women.svg">
  <defs
     id="defs1445" />
  <sodipodi:namedview
     id="base"
     pagecolor="#ffffff"
     bordercolor="#666666"
     borderopacity="1.0"
     inkscape:pageopacity="0.0"
     inkscape:pageshadow="2"
     inkscape:zoom="0.24748738"
     inkscape:cx="638.06214"
     inkscape:cy="22.919198"
     inkscape:document-units="mm"
     inkscape:current-layer="upper-leg"
     showgrid="false"
     inkscape:snap-global="false"
     inkscape:window-width="1920"
     inkscape:window-height="1017"
     inkscape:window-x="-8"
     inkscape:window-y="-8"
     inkscape:window-maximized="1" />
  <metadata
     id="metadata1448">
    <rdf:RDF>
      <cc:Work
         rdf:about="">
        <dc:format>image/svg+xml</dc:format>
        <dc:type
           rdf:resource="http://purl.org/dc/dcmitype/StillImage" />
        <dc:title />
      </cc:Work>
    </rdf:RDF>
  </metadata>
  <g
     inkscape:label="Layer 1"
     inkscape:groupmode="layer"
     id="layer1">
    <g
       id="upper-leg">
      <path
         sodipodi:nodetypes="ccccsssccscsssscc"
         inkscape:connector-curvature="0"
         id="rect3922-1"
         d="M -4.1930015,39.003934 62.829559,40.359073 58.217865,61.419411 57.550292,82.41739 c 0.551097,5.694159 3.035786,9.415754 2.857774,14.206523 -0.04635,1.247219 -1.029274,1.761079 -1.065635,3.074529 -0.02494,0.900698 0.890809,2.576478 0.880295,3.529198 -0.04369,3.95974 -4.516716,10.35439 -1.825954,14.71972 l -76.585912,-3.4488 c 0.336289,-7.05571 -3.297453,-7.82907 -3.342941,-11.94708 -0.02971,-2.689812 3.855343,-5.64052 3.128676,-16.73626 0.554254,-0.486848 0.140867,-2.889431 -0.08094,-5.896033 -0.190022,-2.575754 0.837196,-5.764014 1.197374,-7.865207 0.53556,-3.12432 1.833785,-5.621297 2.734917,-8.011227 1.113089,-2.952068 1.992912,-5.91469 4.542454,-11.776481 1.509301,-3.470116 4.7240531,-9.675795 5.8163391,-13.262338 z"
         style="fill:#ff8844;fill-opacity:1;fill-rule:nonzero;stroke:none;stroke-width:0.59973478" />
      <path
         sodipodi:nodetypes="ccccc"
         inkscape:connector-curvature="0"
         id="rect2028"
         d="m -16.238452,69.370754 10.1237056,3.619094 32.8808334,5.212208 -44.428862,-4.378618 c -0.372837,-1.263742 0.594731,-3.188942 1.424323,-4.452684 z"
         style="opacity:1;fill:#ce520b;fill-opacity:1;stroke:none;stroke-width:0.12113991;stroke-linecap:butt;stroke-miterlimit:4;stroke-dasharray:none;stroke-opacity:1" />
      <path
         style="opacity:1;fill:#ce520b;fill-opacity:1;stroke:none;stroke-width:0.1026353;stroke-linecap:butt;stroke-miterlimit:4;stroke-dasharray:none;stroke-opacity:1"
         d="m -18.212194,77.554401 10.8343782,2.484495 32.8808328,3.741458 -44.759592,-3.596142 z"
         id="path2031"
         inkscape:connector-curvature="0"
         sodipodi:nodetypes="ccccc" />
      <path
         sodipodi:nodetypes="ccccc"
         inkscape:connector-curvature="0"
         id="path2033"
         d="m 58.534799,67.479754 -7.52015,2.32172 -22.822614,3.496338 30.542963,-3.095626 z"
         style="opacity:1;fill:#ce520b;fill-opacity:1;stroke:none;stroke-width:0.08265972;stroke-linecap:butt;stroke-miterlimit:4;stroke-dasharray:none;stroke-opacity:1" />
      <path
         sodipodi:nodetypes="ccccc"
         inkscape:connector-curvature="0"
         id="rect828"
         d="m -21.595284,97.637373 c 24.7797574,10.782887 54.470541,9.288207 83.327148,9.878977 4.517505,8.19928 -2.697788,11.19583 -4.70409,17.06517 -30.446154,0.29244 -54.2322676,3.82116 -76.901553,-8.36708 -3.338738,-4.8099 -1.178861,-12.36912 -1.721505,-18.577067 z"
         style="opacity:1;fill:#ce520b;fill-opacity:1;stroke:none;stroke-width:0.66499996;stroke-linecap:butt;stroke-miterlimit:4;stroke-dasharray:none;stroke-opacity:1" />
      <path
         style="opacity:1;fill:#ce520b;fill-opacity:1;stroke:none;stroke-width:0.29248247;stroke-linecap:butt;stroke-miterlimit:4;stroke-dasharray:none;stroke-opacity:1"
         d="m -18.652345,86.297038 c 34.452344,9.4332 53.678393,5.133813 80.225953,6.978423 -1.246176,2.68094 -0.405068,0.19009 -1.026595,1.01998 -30.408853,-0.94153 -53.6598791,-0.04293 -77.567571,-6.102543 -2.977866,-1.50455 -1.041407,-0.80355 -1.631786,-1.89588 z"
         id="path831"
         inkscape:connector-curvature="0"
         sodipodi:nodetypes="cccccc" />
      <path
         sodipodi:nodetypes="cccccc"
         inkscape:connector-curvature="0"
         id="path833"
         d="m -18.653356,90.292443 c 27.0070226,4.19045 52.474543,7.603418 80.182889,5.481958 -1.291335,1.93011 -0.408185,0.1295 -1.043627,0.72149 -31.443184,2.96433 -52.4387609,-0.371798 -77.540086,-4.780208 -2.951532,-1.16855 -1.027491,-0.61135 -1.599174,-1.42326 z"
         style="opacity:1;fill:#ce520b;fill-opacity:1;stroke:none;stroke-width:0.25005573;stroke-linecap:butt;stroke-miterlimit:4;stroke-dasharray:none;stroke-opacity:1" />
      <path
         style="opacity:1;fill:#ce520b;fill-opacity:1;stroke:none;stroke-width:0.50533879;stroke-linecap:butt;stroke-miterlimit:4;stroke-dasharray:none;stroke-opacity:1"
         d="m 58.753593,86.548028 c 1.257246,2.463664 3.641934,9.109727 3.202001,11.46183 -0.708068,3.785682 -1.542272,18.286782 -3.96547,18.286782 -0.671857,0 -0.09884,-14.83865 -0.901472,-21.476448 -0.740498,-6.124 -2.69202,-9.586965 -2.564269,-13.763981 0.311607,-10.188468 3.665162,-9.098517 3.665162,-19.226669 0,-18.781106 0.611217,-18.716414 3.384286,-18.502298 17.059871,1.317236 3.210733,14.428738 -1.603267,25.741295 -2.18232,5.1283 -3.606225,12.797575 -1.216971,17.479489 z"
         id="path848"
         inkscape:connector-curvature="0"
         sodipodi:nodetypes="sssssssss" />
      <path
         style="opacity:1;fill:#ce520b;fill-opacity:1;stroke:none;stroke-width:0.68622756;stroke-linecap:butt;stroke-miterlimit:4;stroke-dasharray:none;stroke-opacity:1"
         d="m -2.908755,32.859496 70.952334,1.069078 V 46.401788 H -5.6125026 c -2.088693,-4.017633 -0.4716757,-9.171554 2.7037476,-13.542292 z"
         id="rect852"
         inkscape:connector-curvature="0"
         sodipodi:nodetypes="ccccc" />
      <path
         style="opacity:1;fill:#ce520b;fill-opacity:1;stroke:none;stroke-width:0.13229525;stroke-linecap:butt;stroke-miterlimit:4;stroke-dasharray:none;stroke-opacity:1"
         d="M 0.07841969,66.276465 C 26.284972,70.231454 30.953766,69.002525 37.849462,48.311643 34.302294,55.857367 41.090567,69.469553 23.806173,69.371035 L -5.5036414,68.43141 c -0.372837,-1.507205 4.75246909,-0.64774 5.58206109,-2.154945 z"
         id="path827"
         inkscape:connector-curvature="0"
         sodipodi:nodetypes="ccccc" />
    </g>
  </g>
</svg>
