<?xml version="1.0" encoding="UTF-8" standalone="no"?>
<!-- Created with Inkscape (http://www.inkscape.org/) -->

<svg
   xmlns:dc="http://purl.org/dc/elements/1.1/"
   xmlns:cc="http://creativecommons.org/ns#"
   xmlns:rdf="http://www.w3.org/1999/02/22-rdf-syntax-ns#"
   xmlns:svg="http://www.w3.org/2000/svg"
   xmlns="http://www.w3.org/2000/svg"
   xmlns:sodipodi="http://sodipodi.sourceforge.net/DTD/sodipodi-0.dtd"
   xmlns:inkscape="http://www.inkscape.org/namespaces/inkscape"
   width="210mm"
   height="297mm"
   viewBox="0 0 210 297"
   version="1.1"
   id="svg1451"
   inkscape:version="0.92.2 (5c3e80d, 2017-08-06)"
   sodipodi:docname="shorts-basic.svg">
  <defs
     id="defs1445" />
  <sodipodi:namedview
     id="base"
     pagecolor="#ffffff"
     bordercolor="#666666"
     borderopacity="1.0"
     inkscape:pageopacity="0.0"
     inkscape:pageshadow="2"
     inkscape:zoom="0.49497475"
     inkscape:cx="-50.819645"
     inkscape:cy="792.7173"
     inkscape:document-units="mm"
     inkscape:current-layer="layer1"
     showgrid="false"
     inkscape:snap-global="false"
     inkscape:window-width="1920"
     inkscape:window-height="1017"
     inkscape:window-x="-8"
     inkscape:window-y="-8"
     inkscape:window-maximized="1" />
  <metadata
     id="metadata1448">
    <rdf:RDF>
      <cc:Work
         rdf:about="">
        <dc:format>image/svg+xml</dc:format>
        <dc:type
           rdf:resource="http://purl.org/dc/dcmitype/StillImage" />
        <dc:title />
      </cc:Work>
    </rdf:RDF>
  </metadata>
  <g
     inkscape:label="Layer 1"
     inkscape:groupmode="layer"
     id="layer1">
    <g
       id="upper-leg">
      <path
         sodipodi:nodetypes="ccccsssccscssscc"
         inkscape:connector-curvature="0"
         id="rect3922-1"
         d="m -4.1930015,39.003934 67.0225605,2.644349 -4.611694,41.096065 -0.667573,40.974382 c 0.551097,11.11129 3.035786,18.37342 2.857774,27.72188 -0.04635,2.43376 -1.029274,3.43648 -1.065635,5.99948 -0.02494,1.75758 0.890809,5.02761 0.880295,6.8867 -0.04369,7.72682 -4.516716,20.20503 -1.825954,28.72331 l -76.585912,-6.72982 c 0.336289,-13.76815 -3.297453,-15.27724 -3.342941,-23.31291 -0.02971,-5.24877 3.855343,-11.00663 3.128676,-32.65829 0.554254,-0.95001 -1.827681,-5.1506 -2.219093,-10.98368 -0.328218,-4.89136 1.416406,-11.04285 0.928714,-16.29864 -1.10038,-11.858646 -1.93058,-21.505493 6.476953,-42.877204 2.304249,-5.857339 7.9312871,-14.187026 9.0235731,-21.185622 z"
         style="fill:#ff8844;fill-opacity:1;fill-rule:nonzero;stroke:none;stroke-width:0.83777362" />
      <path
         sodipodi:nodetypes="ccccc"
         inkscape:connector-curvature="0"
         id="rect2028"
         d="m -15.057277,66.205203 9.698483,3.193871 32.880833,5.212208 -44.003639,-4.614853 c -0.372837,-1.263742 0.594731,-2.527484 1.424323,-3.791226 z"
         style="opacity:1;fill:#ce520b;fill-opacity:1;stroke:none;stroke-width:0.12113991;stroke-linecap:butt;stroke-miterlimit:4;stroke-dasharray:none;stroke-opacity:1" />
      <path
         style="opacity:1;fill:#ce520b;fill-opacity:1;stroke:none;stroke-width:0.1026353;stroke-linecap:butt;stroke-miterlimit:4;stroke-dasharray:none;stroke-opacity:1"
         d="m -13.109515,59.978508 10.8343777,2.484495 32.8808333,3.741458 -44.00364,-3.31266 z"
         id="path2031"
         inkscape:connector-curvature="0"
         sodipodi:nodetypes="ccccc" />
      <path
         sodipodi:nodetypes="ccccc"
         inkscape:connector-curvature="0"
         id="path2033"
         d="m 58.818281,90.063831 -7.52015,2.32172 -22.822614,3.496338 30.542963,-3.095626 z"
         style="opacity:1;fill:#ce520b;fill-opacity:1;stroke:none;stroke-width:0.08265972;stroke-linecap:butt;stroke-miterlimit:4;stroke-dasharray:none;stroke-opacity:1" />
      <path
         sodipodi:nodetypes="ccccc"
         inkscape:connector-curvature="0"
         id="rect828"
         d="m -22.397093,167.39472 c 24.7797579,10.78289 54.470541,9.28821 83.327148,9.87898 4.517505,8.19928 -2.697788,11.19583 -4.70409,17.06517 -30.446154,0.29244 -54.2322671,3.82116 -76.901553,-8.36708 -3.338738,-4.8099 -1.178861,-12.36912 -1.721505,-18.57707 z"
         style="opacity:1;fill:#ce520b;fill-opacity:1;stroke:none;stroke-width:0.66499996;stroke-linecap:butt;stroke-miterlimit:4;stroke-dasharray:none;stroke-opacity:1" />
      <path
         style="opacity:1;fill:#ce520b;fill-opacity:1;stroke:none;stroke-width:0.29248247;stroke-linecap:butt;stroke-miterlimit:4;stroke-dasharray:none;stroke-opacity:1"
         d="m -21.258223,159.99661 c 34.452344,9.4332 54.947923,5.4679 81.495483,7.31251 -1.246176,2.68094 -0.405068,0.19009 -1.026595,1.01998 -30.408853,-0.94153 -54.9294089,-0.37702 -78.837101,-6.43663 -2.977866,-1.50455 -1.041407,-0.80355 -1.631786,-1.89588 z"
         id="path831"
         inkscape:connector-curvature="0"
         sodipodi:nodetypes="cccccc" />
      <path
         sodipodi:nodetypes="cccccc"
         inkscape:connector-curvature="0"
         id="path833"
         d="m -21.593321,164.12565 c 27.0070228,4.19045 54.07816,7.80387 81.786506,5.68241 -1.291335,1.93011 -0.408185,0.1295 -1.043627,0.72149 -31.443184,2.96433 -54.0423777,-0.57225 -79.143703,-4.98066 -2.951532,-1.16855 -1.027491,-0.61135 -1.599174,-1.42326 z"
         style="opacity:1;fill:#ce520b;fill-opacity:1;stroke:none;stroke-width:0.25005573;stroke-linecap:butt;stroke-miterlimit:4;stroke-dasharray:none;stroke-opacity:1" />
      <path
         style="opacity:1;fill:#ce520b;fill-opacity:1;stroke:none;stroke-width:0.66499996;stroke-linecap:butt;stroke-miterlimit:4;stroke-dasharray:none;stroke-opacity:1"
         d="m 58.532025,122.33936 c 1.191473,4.5019 2.691542,24.46056 2.274624,28.75861 -0.671024,6.91763 -0.701725,25.60158 -2.998151,25.60158 -0.636708,0 -0.09367,-27.11494 -0.854311,-39.24431 -0.701758,-11.1905 -2.551185,-17.51844 -2.430117,-25.15118 0.295305,-18.617578 3.473416,-16.625891 3.473416,-35.133252 0,-34.319066 0.577243,-34.187191 3.207234,-33.809596 1.907422,0.273853 -1.274607,23.362518 -1.51939,47.037551 -0.09922,9.596028 -3.417563,23.385247 -1.153305,31.940597 z"
         id="path848"
         inkscape:connector-curvature="0"
         sodipodi:nodetypes="sssssssss" />
      <path
         style="opacity:1;fill:#ce520b;fill-opacity:1;stroke:none;stroke-width:0.66499996;stroke-linecap:butt;stroke-miterlimit:4;stroke-dasharray:none;stroke-opacity:1"
         d="M -3.1305824,32.859496 63.499997,33.928574 V 46.401788 H -5.6696429 c -1.9614693,-4.017633 -0.4429456,-9.171554 2.5390605,-13.542292 z"
         id="rect852"
         inkscape:connector-curvature="0"
         sodipodi:nodetypes="ccccc" />
    </g>
  </g>
</svg>
