<?xml version="1.0" encoding="UTF-8" standalone="no"?>
<!-- Created with Inkscape (http://www.inkscape.org/) -->

<svg
   xmlns:dc="http://purl.org/dc/elements/1.1/"
   xmlns:cc="http://creativecommons.org/ns#"
   xmlns:rdf="http://www.w3.org/1999/02/22-rdf-syntax-ns#"
   xmlns:svg="http://www.w3.org/2000/svg"
   xmlns="http://www.w3.org/2000/svg"
   xmlns:sodipodi="http://sodipodi.sourceforge.net/DTD/sodipodi-0.dtd"
   xmlns:inkscape="http://www.inkscape.org/namespaces/inkscape"
   width="210mm"
   height="297mm"
   viewBox="0 0 210 297"
   version="1.1"
   id="svg822"
   inkscape:version="0.92.2 (5c3e80d, 2017-08-06)"
   sodipodi:docname="bald01.svg">
  <defs
     id="defs816" />
  <sodipodi:namedview
     id="base"
     pagecolor="#ffffff"
     bordercolor="#666666"
     borderopacity="1.0"
     inkscape:pageopacity="0.0"
     inkscape:pageshadow="2"
     inkscape:zoom="2.8"
     inkscape:cx="21.141319"
     inkscape:cy="1054.5164"
     inkscape:document-units="mm"
     inkscape:current-layer="layer1"
     showgrid="false"
     inkscape:window-width="1920"
     inkscape:window-height="1017"
     inkscape:window-x="-8"
     inkscape:window-y="-8"
     inkscape:window-maximized="1" />
  <metadata
     id="metadata819">
    <rdf:RDF>
      <cc:Work
         rdf:about="">
        <dc:format>image/svg+xml</dc:format>
        <dc:type
           rdf:resource="http://purl.org/dc/dcmitype/StillImage" />
        <dc:title></dc:title>
      </cc:Work>
    </rdf:RDF>
  </metadata>
  <g
     inkscape:label="Layer 1"
     inkscape:groupmode="layer"
     id="layer1">
    <path
       style="fill:#62371b;fill-opacity:1;fill-rule:nonzero;stroke:none;stroke-width:0.23054613"
       d="m 4.5333044,15.911837 c 0.7589036,-1.156141 -0.02835,11.013322 -0.1046528,12.805779 0.7417849,-1.76128 0.9649556,-1.589466 2.0163776,-1.269356 0.5640816,2.497993 0.8701295,3.276741 0.8082624,5.30571 L 7.956188,28.267779 C 5.4603845,25.915792 5.054379,19.342043 6.860599,19.78686 7.3818156,19.383151 6.1894566,17.354656 5.4011061,16.329018 3.1421438,13.390126 8.2084835,3.7378313 23.522101,6.5558511 c 1.414407,0.2602799 3.306083,1.0408321 4.913834,1.5797846 2.521553,0.8452785 5.434041,5.1906963 6.407171,7.9962703 0.253165,0.729883 -2.863812,3.289902 -1.901839,3.682039 1.800586,2.373496 0.06374,5.470312 -1.05081,6.258712 l 0.02117,4.182698 1.334647,-3.226743 c 1.582738,-0.763177 1.210765,-0.321852 1.252242,0.02248 0.0183,0.152252 0.576367,0.441725 0.576367,0.441725 0,0 0.01647,-5.221737 -0.124735,-5.306616 C 38.951086,1.2476825 4.7916022,1.427337 4.5333132,15.911793 Z"
       id="hair-path"
       inkscape:connector-curvature="0"
       sodipodi:nodetypes="ccccccssssccccccccc" />
  </g>
</svg>
