<?xml version="1.0" encoding="UTF-8" standalone="no"?>
<!-- Created with Inkscape (http://www.inkscape.org/) -->

<svg
   xmlns:dc="http://purl.org/dc/elements/1.1/"
   xmlns:cc="http://creativecommons.org/ns#"
   xmlns:rdf="http://www.w3.org/1999/02/22-rdf-syntax-ns#"
   xmlns:svg="http://www.w3.org/2000/svg"
   xmlns="http://www.w3.org/2000/svg"
   xmlns:sodipodi="http://sodipodi.sourceforge.net/DTD/sodipodi-0.dtd"
   xmlns:inkscape="http://www.inkscape.org/namespaces/inkscape"
   width="210mm"
   height="297mm"
   viewBox="0 0 210 297"
   version="1.1"
   id="svg1521"
   inkscape:version="0.92.2 (5c3e80d, 2017-08-06)"
   sodipodi:docname="long02.svg">
  <defs
     id="defs1515" />
  <sodipodi:namedview
     id="base"
     pagecolor="#ffffff"
     bordercolor="#666666"
     borderopacity="1.0"
     inkscape:pageopacity="0.0"
     inkscape:pageshadow="2"
     inkscape:zoom="2.8"
     inkscape:cx="9.6508045"
     inkscape:cy="1054.5915"
     inkscape:document-units="mm"
     inkscape:current-layer="hair-container"
     showgrid="false"
     inkscape:window-width="1920"
     inkscape:window-height="1017"
     inkscape:window-x="-8"
     inkscape:window-y="-8"
     inkscape:window-maximized="1"
     inkscape:snap-global="false" />
  <metadata
     id="metadata1518">
    <rdf:RDF>
      <cc:Work
         rdf:about="">
        <dc:format>image/svg+xml</dc:format>
        <dc:type
           rdf:resource="http://purl.org/dc/dcmitype/StillImage" />
        <dc:title />
      </cc:Work>
    </rdf:RDF>
  </metadata>
  <g
     inkscape:label="Layer 1"
     inkscape:groupmode="layer"
     id="hair-container">
    <path
       style="fill:#62371b;fill-opacity:1;fill-rule:nonzero;stroke:none;stroke-width:0.2658073"
       d="m 16.826363,0.33816371 c -6.32937,-0.0140457 -8.2500849,0.45706319 -13.3303573,6.29139839 -4.6180428,4.7072589 -5.0497863,24.9312209 -0.5695693,26.6220489 0.351323,-0.835581 -0.5156475,-3.772318 -0.1441773,-5.319573 0.4508807,-1.878019 0.7547438,6.718991 0.7741129,9.308992 0.2161135,-2.876013 1.0823201,-12.134225 1.0288777,-12.294857 0.649809,2.882477 -0.5152583,5.015915 -0.5865275,7.357174 0.9307367,-1.788041 4.3182669,-2.725238 4.3237671,-6.598564 -3.484603,-1.368269 -4.4038173,-3.463265 -4.2436685,-5.278747 0.488351,1.174957 0.5306164,2.977725 3.3930744,2.45308 -2.3022251,-0.882689 -1.8212795,-3.577434 -1.8712035,-5.605859 0.036435,-0.03273 0.072701,-0.06075 0.1090372,-0.09043 0.2823199,1.270061 -0.5239589,3.281443 2.6050089,3.613216 -1.1577521,-0.885678 -1.3654302,-2.518717 -1.298112,-4.259688 l 0.9312093,-1.493449 c -0.5634011,-1.479763 0.1994116,0.326703 -0.047542,-3.002401 -1.7717648,-3.790599 11.8054319,-1.786886 11.8881629,-4.1615028 1.772004,3.1929688 7.306935,7.0747708 10.475329,8.4547808 -0.145857,0.497328 -0.438142,0.955626 -0.951363,1.348238 1.065642,-0.112992 1.671627,-0.421778 2.022616,-0.82889 0.314573,1.326795 0.334356,2.633551 -0.888834,3.569291 1.678477,-0.177973 2.223977,-0.839633 2.412773,-1.610754 0.18669,1.465971 0.05463,2.589761 -0.899687,3.515031 2.960653,-0.07083 2.395525,5.957258 2.000393,9.618017 0.260935,-2.012241 1.11428,-3.940032 0.607198,-6.062162 2.159611,7.275782 1.200581,-1.017171 1.246955,-0.631486 0.02111,0.175683 0.66404,0.50953 0.66404,0.50953 0,0 0.01901,-6.025206 -0.143661,-6.12314 -0.397933,-3.600455 -0.01139,-8.597803 -1.97941,-12.0227295 -5.357589,-6.5555524 -9.481666,-7.46625 -15.210442,-7.39779322 -1.00023,-0.001353 -0.611995,-0.41130008 -1.516191,-0.41330658 z m 17.13332,31.60654829 c -0.02143,0.165251 -0.04037,0.331094 -0.05271,0.497644 0.01651,-0.151969 0.03522,-0.335547 0.05271,-0.497644 z m -30.403311,5.296318 c -0.058395,0.777118 -0.079485,1.188752 -0.00982,0.708483 0.0099,-0.06827 0.012672,-0.327623 0.00982,-0.708483 z"
       id="hair-path"
       inkscape:connector-curvature="0"
       sodipodi:nodetypes="cccscccccccccccccccccccccccccccccccccc" />
    <path
       style="opacity:1;fill:#62371b;fill-opacity:1;stroke:none;stroke-width:0.66178185;stroke-linecap:butt;stroke-miterlimit:4;stroke-dasharray:none;stroke-opacity:1"
       d="m 1.2521199,21.784921 c -0.97494971,3.889946 0.4963717,8.452536 1.7626831,12.906707 -0.1844395,1.418487 -0.177949,3.327273 0.2976562,6.443017 1.3254588,8.133807 -14.4969742,8.353253 -1.0247436,34.271293 -0.1070107,-8.430588 1.4054822,-14.489157 3.5806601,-19.187977 0.3258463,-0.111678 0.6847837,-0.276611 1.0759033,-0.478523 -0.9188784,6.205966 -2.3645712,13.266462 4.417301,18.839677 -2.8036438,-7.516664 -1.047035,-14.887286 1.339453,-21.759912 0.617954,-0.234223 1.26256,-0.446019 1.94045,-0.612884 1.346159,-0.331359 2.640678,-2.858195 3.981887,-2.557991 2.157747,2.615789 9.345182,7.339972 12.17506,3.537663 0.971656,4.82573 0.877145,7.677876 -1.203337,15.439999 4.165229,-3.422906 5.832829,-7.712252 6.150528,-12.274187 0.898186,4.756332 0.883705,10.57288 -1.142566,18.132742 11.144787,-9.15857 4.426204,-24.513759 1.740463,-34.717259 v -15.525667 c 0.214857,-19.7830984 -25.565933,-33.2310319 -35.0913981,-2.456698 z"
       id="hair-back"
       inkscape:connector-curvature="0"
       sodipodi:nodetypes="ccccccccccccccccc" />
    <rect
       style="opacity:1;fill:#ffffff;fill-opacity:1;stroke:none;stroke-width:0.66499996;stroke-linecap:butt;stroke-miterlimit:4;stroke-dasharray:none;stroke-opacity:1"
       id="rect838"
       width="12.695303"
       height="15.501633"
       x="118.93494"
       y="49.374786" />
  </g>
</svg>
