<?xml version="1.0" encoding="UTF-8" standalone="no"?>
<!-- Created with Inkscape (http://www.inkscape.org/) -->

<svg
   xmlns:dc="http://purl.org/dc/elements/1.1/"
   xmlns:cc="http://creativecommons.org/ns#"
   xmlns:rdf="http://www.w3.org/1999/02/22-rdf-syntax-ns#"
   xmlns:svg="http://www.w3.org/2000/svg"
   xmlns="http://www.w3.org/2000/svg"
   xmlns:sodipodi="http://sodipodi.sourceforge.net/DTD/sodipodi-0.dtd"
   xmlns:inkscape="http://www.inkscape.org/namespaces/inkscape"
   width="210mm"
   height="297mm"
   viewBox="0 0 210 297"
   version="1.1"
   id="svg1521"
   inkscape:version="0.92.2 (5c3e80d, 2017-08-06)"
   sodipodi:docname="long01.svg">
  <defs
     id="defs1515" />
  <sodipodi:namedview
     id="base"
     pagecolor="#ffffff"
     bordercolor="#666666"
     borderopacity="1.0"
     inkscape:pageopacity="0.0"
     inkscape:pageshadow="2"
     inkscape:zoom="3.959798"
     inkscape:cx="25.760506"
     inkscape:cy="1038.3581"
     inkscape:document-units="mm"
     inkscape:current-layer="hair-container"
     showgrid="false"
     inkscape:window-width="1920"
     inkscape:window-height="1017"
     inkscape:window-x="-8"
     inkscape:window-y="-8"
     inkscape:window-maximized="1"
     inkscape:snap-global="false" />
  <metadata
     id="metadata1518">
    <rdf:RDF>
      <cc:Work
         rdf:about="">
        <dc:format>image/svg+xml</dc:format>
        <dc:type
           rdf:resource="http://purl.org/dc/dcmitype/StillImage" />
        <dc:title />
      </cc:Work>
    </rdf:RDF>
  </metadata>
  <g
     inkscape:label="Layer 1"
     inkscape:groupmode="layer"
     id="hair-container">
    <path
       style="fill:#62371b;fill-opacity:1;fill-rule:nonzero;stroke:none;stroke-width:0.2658073"
       d="m 18.355811,0.18061047 c -8.001532,-0.0101993 -16.7339933,3.85110023 -16.9425252,11.62586253 -0.92125468,-0.921255 -1.2428019,14.273515 1.5133606,20.376095 0.3513231,-0.83558 -0.5156736,-3.772322 -0.1442034,-5.319578 0.4508808,-1.878019 0.7545585,6.719003 0.7739277,9.309004 0.2161135,-2.876012 1.0825797,-12.134466 1.0291374,-12.295098 0.649809,2.882477 -0.5154011,5.01616 -0.5866703,7.357418 0.9307365,-1.788042 3.6499085,-3.393682 3.6554086,-7.267009 2.0334802,-3.22264 0.5338042,-9.046062 -0.8408101,-8.174724 l 1.1344046,-1.81858 c -0.5634013,-1.479763 0.065711,1.328669 -0.181243,-2.000435 0.083214,-0.265972 6.3826401,1.291814 6.0063351,-2.979501 6.136332,0.9400073 3.904541,-1.9067872 6.582553,0.3674196 1.602727,1.2060244 3.762025,3.9216604 3.574071,7.7939744 0.201696,-3.086344 -0.150453,-5.026541 -0.791046,-6.369154 0.162338,0.04429 0.362858,0.09542 0.513531,0.137692 1.692306,3.564461 6.424419,4.757329 3.862896,11.640929 2.640216,-6.677152 0.420957,-8.308947 -1.054553,-10.71294 2.295865,0.981116 1.370253,1.663382 5.817944,4.414971 0.625976,3.110814 2.065032,5.298685 0.531168,6.785866 1.674634,1.343148 1.332108,4.890877 1.097608,8.320221 0.162545,-2.194624 1.208535,-4.262922 0.659811,-6.559325 2.159609,7.275781 1.200626,-1.017507 1.246999,-0.631822 0.02111,0.175683 0.66396,0.509719 0.66396,0.509719 0,0 0.01898,-6.025453 -0.143687,-6.123387 -0.397935,-3.600455 0.152128,-7.313669 -1.815891,-10.7385951 -0.713797,-1.2422135 -2.103762,-2.9687511 -3.503047,-3.90038 l -0.478776,-0.4816614 -2.628865,-1.3067729 c -0.237252,-0.038469 -0.450703,-0.068542 -0.683672,-0.1054772 -2.524037,-1.18701157 -5.737091,-1.85074089 -8.868126,-1.85473193 z m 5.573746,16.97484853 c -0.03093,0.47333 -0.07054,0.964773 -0.128643,1.494346 0.0657,-0.531883 0.105933,-1.026486 0.128643,-1.494346 z m -20.3731863,19.016535 c -0.058395,0.777119 -0.079516,1.18847 -0.00985,0.708201 0.0099,-0.06827 0.012704,-0.327341 0.00985,-0.708201 z m 23.9544183,-13.597194 c -0.189441,0.478586 -0.397077,0.976291 -0.638544,1.508894 0.250005,-0.532013 0.461389,-1.033725 0.638544,-1.508894 z"
       id="hair-path"
       inkscape:connector-curvature="0"
       sodipodi:nodetypes="sccscccccccccccccccccccccsccccsccccccccc" />
    <path
       style="opacity:1;fill:#62371b;fill-opacity:1;stroke:none;stroke-width:0.66178191;stroke-linecap:butt;stroke-miterlimit:4;stroke-dasharray:none;stroke-opacity:1"
       d="m 2.3859398,23.707256 v 20.817858 c -1.1698639,2.136241 -1.43431075,5.502379 -1.81180357,8.714651 0.54185857,-1.4288 1.02917947,-2.924616 1.62193607,-4.290977 -0.5323092,4.593208 -1.63342527,9.298275 -4.4590236,10.119389 2.21304264,-0.508788 3.7202101,-2.101405 4.7846593,-4.158285 0.1724728,2.117638 0.416088,4.298426 0.6252621,6.448672 0.6407627,-4.264559 0.9908786,-8.763139 2.297656,-12.491629 0.046838,3.336608 0.4902785,7.025638 0.8411387,10.632373 0.5285016,-3.517411 0.8595253,-7.194014 1.6921611,-10.466634 0.6299836,4.890027 0.828906,10.371722 -1.9454912,11.886114 4.1249493,-1.958097 4.4627943,-7.585284 4.2306623,-12.429604 1.591748,0.550437 3.128186,1.045982 4.473589,0.992416 2.125874,-0.08464 4.720751,-1.810396 6.693218,-2.37224 2.174518,-0.619396 4.156701,-0.707322 6.121014,-0.573485 -0.355682,5.125628 -0.446276,11.832506 4.136509,14.010248 -1.784352,-0.97591 -2.337269,-3.598072 -2.337712,-6.646441 0.614016,1.981458 1.707919,3.62194 3.576791,4.509088 -2.42364,-1.322937 -2.580057,-5.677713 -2.160847,-10.018216 0.20288,1.276931 0.569998,2.486001 1.243242,3.38906 -0.37334,2.436352 -0.472161,5.156436 1.04245,6.686098 -0.0418,-0.01875 -0.0838,-0.03746 -0.124845,-0.05694 0.04733,0.02584 0.09449,0.05174 0.143571,0.07524 0.274626,0.273227 0.600216,0.508749 0.987313,0.696014 -1.027991,-0.740607 -0.930294,-3.341552 -0.537874,-6.184299 0.176511,0.0762 0.362207,0.141546 0.56024,0.192689 -0.196679,-0.08908 -0.370421,-0.242748 -0.527987,-0.440792 0.164031,-1.144651 0.370914,-2.314171 0.570122,-3.418547 0.07796,5.434938 0.396817,13.172209 6.045587,14.631017 -4.264065,-1.931165 -2.770375,-20.177847 -3.823877,-24.43367 v -15.819168 c 1.203663,-29.6752204 -33.4573686,-28.3133642 -33.9576612,0 z m 29.3014872,36.838867 c 0.19737,0.107948 0.408318,0.197845 0.636705,0.263866 -0.222153,-0.07821 -0.433343,-0.167228 -0.636705,-0.263866 z m -25.6549923,0.372665 c -0.2026491,0.0962 -0.4128094,0.184937 -0.6341051,0.262848 0.2275278,-0.06577 0.4373644,-0.155457 0.6341051,-0.262848 z m -8.295386,-1.850611 c -0.22074,0.05075 -0.4469585,0.0929 -0.6819623,0.12151 0.2383594,-0.01534 0.4645428,-0.05833 0.6819623,-0.12151 z m 34.5423473,-11.943563 c 0.152327,0.02237 0.305076,0.04402 0.458804,0.06609 0.03189,0.431741 -0.09218,1.154041 -0.261653,2.031099 -0.08624,-0.662333 -0.148873,-1.371367 -0.197151,-2.097191 z"
       id="hair-back"
       inkscape:connector-curvature="0"
       sodipodi:nodetypes="ccccccccccccssccccccccccccccccccccccccccccccsc" />
  </g>
</svg>
