<?xml version="1.0" encoding="UTF-8" standalone="no"?>
<!-- Created with Inkscape (http://www.inkscape.org/) -->

<svg
   xmlns:dc="http://purl.org/dc/elements/1.1/"
   xmlns:cc="http://creativecommons.org/ns#"
   xmlns:rdf="http://www.w3.org/1999/02/22-rdf-syntax-ns#"
   xmlns:svg="http://www.w3.org/2000/svg"
   xmlns="http://www.w3.org/2000/svg"
   xmlns:sodipodi="http://sodipodi.sourceforge.net/DTD/sodipodi-0.dtd"
   xmlns:inkscape="http://www.inkscape.org/namespaces/inkscape"
   width="210mm"
   height="297mm"
   viewBox="0 0 210 297"
   version="1.1"
   id="svg1521"
   inkscape:version="0.92.2 (5c3e80d, 2017-08-06)"
   sodipodi:docname="short04.svg">
  <defs
     id="defs1515" />
  <sodipodi:namedview
     id="base"
     pagecolor="#ffffff"
     bordercolor="#666666"
     borderopacity="1.0"
     inkscape:pageopacity="0.0"
     inkscape:pageshadow="2"
     inkscape:zoom="0.98994949"
     inkscape:cx="94.195287"
     inkscape:cy="944.86018"
     inkscape:document-units="mm"
     inkscape:current-layer="hair-container"
     showgrid="false"
     inkscape:window-width="1920"
     inkscape:window-height="1017"
     inkscape:window-x="-8"
     inkscape:window-y="-8"
     inkscape:window-maximized="1"
     inkscape:snap-global="false" />
  <metadata
     id="metadata1518">
    <rdf:RDF>
      <cc:Work
         rdf:about="">
        <dc:format>image/svg+xml</dc:format>
        <dc:type
           rdf:resource="http://purl.org/dc/dcmitype/StillImage" />
        <dc:title />
      </cc:Work>
    </rdf:RDF>
  </metadata>
  <g
     inkscape:label="Layer 1"
     inkscape:groupmode="layer"
     id="hair-container">
    <path
       style="fill:#62371b;fill-opacity:1;fill-rule:nonzero;stroke:none;stroke-width:0.27089092"
       d="m 14.408548,-2.1109031 c -1.525497,0.011603 -3.23903,0.4992059 -5.2897808,1.83856637 L 7.9875863,1.0805311 C 6.8327125,1.6905545 5.7470022,2.4437572 4.7681114,3.3180264 2.5110554,2.5509051 0.78310793,3.0284667 -0.86451466,3.6942051 0.47993398,3.731088 1.9333795,4.0753176 3.4618037,4.6306834 1.9718516,6.3154393 0.84812191,8.3234764 0.28571352,10.545841 l -1.04811504,1.356041 c -1.40391138,3.669327 -0.45310708,5.787145 0.77299138,7.723566 -0.19587812,-1.270002 -0.13243026,-2.688851 0.11057861,-4.210979 0.43062768,0.41823 -0.02500167,10.310354 2.42108733,12.256755 0.8715948,-2.069497 1.1338204,-1.867613 2.3692373,-1.491487 0.662794,2.935134 1.1192215,3.269761 1.0465279,5.65379 l 1.1782699,-2.61579 0.9052624,-2.075066 c 2.0741147,-3.281515 0.203708,-9.742003 -1.1983752,-8.854747 l 0.6269647,-4.610437 c -0.5746619,-1.506802 1.0818873,-1.090365 1.4131827,-2.147551 0.010024,-0.03198 0.0035,-0.09852 -0.013756,-0.187295 1.2036545,1.083801 2.2399935,2.469174 3.0078415,4.337429 -0.463495,-2.878711 -1.037739,-5.583712 -2.3575969,-7.1167066 0.6896549,0.041294 1.3597729,0.048718 2.0110479,0.029629 2.211303,1.253551 4.140657,3.0142206 5.377077,6.0225616 -0.386486,-2.400424 -0.851894,-4.677152 -1.760262,-6.2574747 4.584341,0.8543735 8.590218,2.0557407 11.144621,4.1289687 -0.860808,-1.783433 -1.91177,-3.4667854 -4.126324,-4.5405961 2.961362,0.781107 5.50695,1.8119714 7.319346,3.2829651 -0.289402,-0.599587 -0.602137,-1.186918 -0.970869,-1.7449186 0.635928,0.3555486 1.222188,0.7406776 1.744388,1.1645136 -0.665572,-1.3789459 -1.44707,-2.6970681 -2.7888,-3.7215756 0.96746,0.4434235 1.891114,1.1759753 2.787741,2.3195035 l 1.76767,3.3147101 c -0.604198,0.595284 -1.978406,1.824376 -1.872955,2.092526 0.06903,0.175536 2.112005,2.924982 3.005195,3.7766 -1.952969,1.827464 -1.723697,3.151902 -2.072422,5.18026 -0.731006,4.251923 0.616083,4.423202 0.969812,4.922068 l 0.02486,-0.696276 c 0.438475,-3.770302 -0.01976,-0.231386 3.212598,-1.372973 1.859714,-0.89673 1.422646,-0.378189 1.471383,0.02646 0.02154,0.178894 0.677226,0.519031 0.677226,0.519031 0,0 0.01938,-6.13553 -0.146557,-6.235253 -0.141395,-1.1282 -0.0814,-2.275938 0.03916,-3.41841 0.507763,1.986836 0.742265,3.843477 0.579875,5.510408 1.446375,-2.432566 2.517724,-5.071639 0.378302,-9.478537 L 37.83585,12.895505 c 0.03364,-0.659287 0.02448,-1.303651 -0.05608,-1.927982 0.859169,1.170322 1.532898,2.341242 1.961315,3.512587 0.25065,-2.81896 0.07359,-5.6619327 -3.762845,-8.7081902 L 34.379874,5.1423086 33.12277,3.1518951 30.358836,2.4429229 C 32.093845,2.1259226 33.713175,2.026978 35.173501,2.2297022 33.344683,1.0386755 31.380218,0.07251558 28.519212,0.58742622 30.44691,-0.16246804 32.276395,-0.6219376 33.962956,-0.65909608 31.375717,-1.806082 28.627478,-2.555323 24.506112,0.0927319 L 24.373841,0.2482834 C 22.68366,-0.90421909 20.528405,-1.5508692 17.101053,-0.81200181 l -0.42803,0.23808783 c -0.307036,-0.0424978 -0.615454,-0.0736776 -0.924309,-0.0936476 C 16.723881,-0.91588342 17.667265,-1.0673983 18.569259,-1.094003 17.2714,-1.6578321 15.93404,-2.1225013 14.408546,-2.1109031 Z"
       id="hair-path"
       inkscape:connector-curvature="0" />
  </g>
</svg>
