<?xml version="1.0" encoding="UTF-8" standalone="no"?>
<!-- Created with Inkscape (http://www.inkscape.org/) -->

<svg
   xmlns:dc="http://purl.org/dc/elements/1.1/"
   xmlns:cc="http://creativecommons.org/ns#"
   xmlns:rdf="http://www.w3.org/1999/02/22-rdf-syntax-ns#"
   xmlns:svg="http://www.w3.org/2000/svg"
   xmlns="http://www.w3.org/2000/svg"
   xmlns:sodipodi="http://sodipodi.sourceforge.net/DTD/sodipodi-0.dtd"
   xmlns:inkscape="http://www.inkscape.org/namespaces/inkscape"
   width="210mm"
   height="297mm"
   viewBox="0 0 210 297"
   version="1.1"
   id="svg1521"
   inkscape:version="0.92.2 (5c3e80d, 2017-08-06)"
   sodipodi:docname="short01.svg">
  <defs
     id="defs1515" />
  <sodipodi:namedview
     id="base"
     pagecolor="#ffffff"
     bordercolor="#666666"
     borderopacity="1.0"
     inkscape:pageopacity="0.0"
     inkscape:pageshadow="2"
     inkscape:zoom="1.979899"
     inkscape:cx="34.776166"
     inkscape:cy="1026.9826"
     inkscape:document-units="mm"
     inkscape:current-layer="hair-container"
     showgrid="false"
     inkscape:window-width="1920"
     inkscape:window-height="1017"
     inkscape:window-x="-8"
     inkscape:window-y="-8"
     inkscape:window-maximized="1"
     inkscape:snap-global="false" />
  <metadata
     id="metadata1518">
    <rdf:RDF>
      <cc:Work
         rdf:about="">
        <dc:format>image/svg+xml</dc:format>
        <dc:type
           rdf:resource="http://purl.org/dc/dcmitype/StillImage" />
        <dc:title />
      </cc:Work>
    </rdf:RDF>
  </metadata>
  <g
     inkscape:label="Layer 1"
     inkscape:groupmode="layer"
     id="hair-container">
    <path
       style="fill:#62371b;fill-opacity:1;fill-rule:nonzero;stroke:none;stroke-width:0.26458332"
       d="m 0.53453883,0.40090481 c 18.56072217,0.214907 17.07977717,0.380446 15.59893917,0.55516 -5.350531,-0.361431 -8.6033052,-0.01833 -10.4334732,0.71106799 -2.66564,0.115569 -5.18052097,1.88103 -5.09167897,5.465817 0.90707897,-1.266739 1.97999097,-1.977096 3.12022397,-2.298052 -1.571707,0.81083 -2.712855,2.403664 -2.652552,4.836915 1.003591,-1.401518 2.209676,-2.123208 3.486092,-2.387451 -0.01077,0.02017 -0.02093,0.04034 -0.03152,0.06046 -1.468159,0.840468 -2.510295,2.402912 -2.452563,4.7325282 0.275709,-0.385498 0.552503,-0.703719 0.83044,-0.975134 -1.336345,6.094103 -0.26556,9.491702 -0.516764,14.370183 0.8513,-2.021311 1.107419,-1.824128 2.31407,-1.456759 0.647361,2.866789 0.998593,3.760515 0.927592,6.089033 l 0.80667,-5.148522 c -0.05742,-1.816279 -0.125905,-8.416639 0.152445,-8.648567 l 1.46296,-2.140956 c -0.561281,-1.471718 -1.305949,-2.293324 -0.982368,-3.325894 0.0829,-0.264526 0.211383,-0.518028 0.371035,-0.75706 2.5907182,0.573192 5.7191412,2.055888 10.0453832,0.835608 -2.238746,0.106756 -2.965495,-0.506661 -3.858681,-1.1740882 0.306237,0.0254 0.616421,0.08296 0.909505,0.234094 0.048,0.0246 0.380434,0.5551072 0.428916,0.5353682 0.1343,-0.0547 0.0058,-0.484672 0.153996,-0.469222 0.640508,0.0669 1.315751,0.11566 2.004012,0.12299 0.911429,0.01 2.534065,-0.2559302 3.892785,-0.5095302 0.12486,-0.0233 0.915459,0.4213152 1.035079,0.3984252 0.22683,-0.0434 -0.225462,-0.5531982 -0.02532,-0.5927282 0.345569,-0.0682 0.644181,-0.128636 0.868682,-0.173116 0.546069,-0.10821 1.038921,-0.183041 1.486731,-0.234611 0.10292,-0.0119 0.637601,0.779468 0.735873,0.769978 0.0916,-0.009 -0.253045,-0.818759 -0.165365,-0.825789 1.472255,-0.117761 2.409439,0.0082 3.202387,-0.07596 l 1.020093,1.3869952 2.128552,-1.5781982 c -0.590129,0.581424 -2.05068,3.7626552 -1.947685,4.0245612 0.06742,0.17145 2.062831,2.856873 2.935224,3.688662 1.537808,1.46622 0.01886,6.029254 0.529166,6.748942 l 0.02429,4.800224 1.531689,-3.703132 c 1.816412,-0.875851 1.389523,-0.369372 1.437124,0.02585 0.02103,0.174729 0.661458,0.506945 0.661458,0.506945 0,0 0.01892,-5.992667 -0.143145,-6.090068 C 35.723278,13.856238 34.794363,7.8468778 30.421499,4.3656868 l 0.137459,-0.668176 -2.618962,-1.299662 C 27.703638,2.3595888 27.49099,2.3296788 27.2589,2.2929448 25.031283,1.0041608 22.803722,0.62027481 20.576105,0.61759581 Z"
       id="hair-path"
       inkscape:connector-curvature="0" />
    <path
       style="opacity:1;fill:#62371b;fill-opacity:1;stroke:none;stroke-width:0.64034355;stroke-linecap:butt;stroke-miterlimit:4;stroke-dasharray:none;stroke-opacity:1"
       d="m 32.756603,21.656867 c -0.613535,2.932992 -2.023407,3.924159 -3.757691,6.224538 -1.440908,1.91124 -2.959427,5.323204 -5.77178,6.03429 -2.025058,0.512023 -4.793564,0.624514 -6.439882,0.286941 -3.677379,-0.754036 -5.416046,-3.054107 -7.1915731,-5.065666 -1.7164528,-1.94463 -3.5230049,-3.545093 -3.9669293,-7.480103 -0.481525,-4.268306 -2.1952458,-10.55533 0.6726066,-13.1623565 2.3796919,-2.1632629 9.4941838,-1.0561806 12.8913218,-1.0561806 2.825369,0 9.458017,-0.5813606 11.630143,0.9679637 3.587024,2.5585364 2.826964,8.9807474 1.933784,13.2505734 z"
       id="hair-back"
       inkscape:connector-curvature="0"
       sodipodi:nodetypes="ssssssssss" />
  </g>
</svg>
