<?xml version="1.0" encoding="UTF-8" standalone="no"?>
<!-- Created with Inkscape (http://www.inkscape.org/) -->

<svg
   xmlns:dc="http://purl.org/dc/elements/1.1/"
   xmlns:cc="http://creativecommons.org/ns#"
   xmlns:rdf="http://www.w3.org/1999/02/22-rdf-syntax-ns#"
   xmlns:svg="http://www.w3.org/2000/svg"
   xmlns="http://www.w3.org/2000/svg"
   xmlns:sodipodi="http://sodipodi.sourceforge.net/DTD/sodipodi-0.dtd"
   xmlns:inkscape="http://www.inkscape.org/namespaces/inkscape"
   width="210mm"
   height="297mm"
   viewBox="0 0 210 297"
   version="1.1"
   id="svg1521"
   inkscape:version="0.92.2 (5c3e80d, 2017-08-06)"
   sodipodi:docname="short01_side.svg">
  <defs
     id="defs1515" />
  <sodipodi:namedview
     id="base"
     pagecolor="#ffffff"
     bordercolor="#666666"
     borderopacity="1.0"
     inkscape:pageopacity="0.0"
     inkscape:pageshadow="2"
     inkscape:zoom="2.8"
     inkscape:cx="101.66964"
     inkscape:cy="1006.2962"
     inkscape:document-units="mm"
     inkscape:current-layer="hair-container"
     showgrid="false"
     inkscape:window-width="1920"
     inkscape:window-height="1017"
     inkscape:window-x="-8"
     inkscape:window-y="-8"
     inkscape:window-maximized="1"
     inkscape:snap-global="false" />
  <metadata
     id="metadata1518">
    <rdf:RDF>
      <cc:Work
         rdf:about="">
        <dc:format>image/svg+xml</dc:format>
        <dc:type
           rdf:resource="http://purl.org/dc/dcmitype/StillImage" />
        <dc:title></dc:title>
      </cc:Work>
    </rdf:RDF>
  </metadata>
  <g
     inkscape:label="Layer 1"
     inkscape:groupmode="layer"
     id="hair-container">
    <path
       style="fill:#62371b;fill-opacity:1;fill-rule:nonzero;stroke:none;stroke-width:0.26458332"
       d="m 0.53453883,0.40090481 c 18.56072217,0.214907 17.07977717,0.380446 15.59893917,0.55516 -5.350531,-0.361431 -8.6033052,-0.01833 -10.4334732,0.71106799 -2.66564,0.115569 -4.712849,4.419893 -4.624007,8.00468 0.907079,-1.266739 1.512319,-4.515959 2.652552,-4.836915 C 2.1568428,5.6457278 1.34953,9.3100121 1.409833,11.743263 2.413424,10.341745 3.2856738,7.5486048 4.5620898,7.2843618 c -0.01077,0.02017 -0.02093,0.04034 -0.03152,0.06046 -1.468159,0.840468 -3.84664267,4.8751552 -3.78891067,7.2047722 0.27570897,-0.385498 1.88885067,-3.175963 2.16678767,-3.447378 -2.90334947,7.592436 0.1687661,9.59479 -0.516764,14.370183 0.8513,-2.021311 1.107419,-1.824128 2.31407,-1.456759 0.647361,2.866789 0.998593,3.760515 0.927592,6.089033 l 0.80667,-5.148522 C 6.3825948,23.139872 6.1136577,14.267721 6.3920077,14.035793 l 4.4697423,3.271252 c -0.561281,-1.471718 -1.2391318,-5.099654 -0.9155508,-6.132224 0.0829,-0.264526 1.0800088,-0.918932 1.2396608,-1.157964 2.590718,0.573192 1.977368,2.122705 6.30361,0.902425 -2.238746,0.106756 -2.965495,-0.506661 -3.858681,-1.1740882 0.306237,0.0254 0.616421,0.08296 0.909505,0.234094 0.048,0.0246 0.380434,0.5551072 0.428916,0.5353682 0.1343,-0.0547 0.0058,-0.484672 0.153996,-0.469222 0.640508,0.0669 1.315751,0.11566 2.004012,0.12299 0.911429,0.01 2.534065,-0.2559302 3.892785,-0.5095302 0.12486,-0.0233 0.915459,0.4213152 1.035079,0.3984252 0.22683,-0.0434 -0.225462,-0.5531982 -0.02532,-0.5927282 0.345569,-0.0682 0.644181,-0.128636 0.868682,-0.173116 0.546069,-0.10821 1.038921,-0.183041 1.486731,-0.234611 0.10292,-0.0119 0.637601,0.779468 0.735873,0.769978 0.0916,-0.009 -0.253045,-0.818759 -0.165365,-0.825789 3.592365,1.1448512 11.887481,3.6281612 10.001531,-3.5014374 0.84775,-0.5566906 2.454211,-2.1042001 2.497028,-3.4658237 0.226773,-0.2682654 -2.70535,1.4469512 -4.280435,1.3031414 C 32.022966,3.231858 32.169209,1.2974217 31.958867,1.0262057 31.662758,1.2642225 31.489772,1.5761127 31.270715,1.8603605 30.825253,2.4383902 30.189277,2.9021108 27.939996,2.3978488 27.703638,2.3595888 27.49099,2.3296788 27.2589,2.2929448 25.031283,1.0041608 22.803722,0.62027481 20.576105,0.61759581 Z"
       id="hair-path"
       inkscape:connector-curvature="0"
       sodipodi:nodetypes="cccccccccccccccccccccccccccccccccscscccc" />
  </g>
</svg>
