<?xml version="1.0" encoding="UTF-8" standalone="no"?>
<!-- Created with Inkscape (http://www.inkscape.org/) -->

<svg
   xmlns:dc="http://purl.org/dc/elements/1.1/"
   xmlns:cc="http://creativecommons.org/ns#"
   xmlns:rdf="http://www.w3.org/1999/02/22-rdf-syntax-ns#"
   xmlns:svg="http://www.w3.org/2000/svg"
   xmlns="http://www.w3.org/2000/svg"
   xmlns:sodipodi="http://sodipodi.sourceforge.net/DTD/sodipodi-0.dtd"
   xmlns:inkscape="http://www.inkscape.org/namespaces/inkscape"
   width="210mm"
   height="297mm"
   viewBox="0 0 210 297"
   version="1.1"
   id="svg1521"
   inkscape:version="0.92.2 (5c3e80d, 2017-08-06)"
   sodipodi:docname="short02.svg">
  <defs
     id="defs1515" />
  <sodipodi:namedview
     id="base"
     pagecolor="#ffffff"
     bordercolor="#666666"
     borderopacity="1.0"
     inkscape:pageopacity="0.0"
     inkscape:pageshadow="2"
     inkscape:zoom="1.4"
     inkscape:cx="-0.051443769"
     inkscape:cy="967.20302"
     inkscape:document-units="mm"
     inkscape:current-layer="hair-container"
     showgrid="false"
     inkscape:window-width="1920"
     inkscape:window-height="1017"
     inkscape:window-x="-8"
     inkscape:window-y="-8"
     inkscape:window-maximized="1" />
  <metadata
     id="metadata1518">
    <rdf:RDF>
      <cc:Work
         rdf:about="">
        <dc:format>image/svg+xml</dc:format>
        <dc:type
           rdf:resource="http://purl.org/dc/dcmitype/StillImage" />
        <dc:title />
      </cc:Work>
    </rdf:RDF>
  </metadata>
  <g
     inkscape:label="Layer 1"
     inkscape:groupmode="layer"
     id="hair-container">
    <path
       style="fill:#62371b;fill-opacity:1;fill-rule:nonzero;stroke:none;stroke-width:0.26458332"
       d="m 2.0780068,12.07735 c 0.8709455,-1.32683 0.4012438,11.337956 0.313676,13.395049 0.8513,-2.021311 1.107419,-1.824128 2.31407,-1.456759 0.647361,2.866789 0.998593,3.760515 0.927592,6.089033 l 0.80667,-5.148522 c 2.0258197,-3.205105 1.5218811,-9.515163 0.152445,-8.648567 l 1.46296,-2.140956 c -0.561281,-1.471718 -1.305949,-2.293324 -0.982368,-3.325894 0.0829,-0.264526 0.211383,-0.518028 0.371035,-0.75706 2.5907182,0.573192 15.0067572,2.323158 19.3329992,1.102878 -8.528559,-0.472416 7.594301,1.570838 1.380984,-2.2614592 l 1.020093,1.3869952 -2.14776,2.764932 c -0.590129,0.581424 2.225632,-0.580475 2.328627,-0.318569 0.06742,0.17145 2.062831,2.856873 2.935224,3.688662 -5.906059,5.526511 0.01886,6.029254 0.529166,6.748942 l 0.02429,4.800224 1.531689,-3.703132 c 1.816412,-0.875851 1.389523,-0.369372 1.437124,0.02585 0.02103,0.174729 0.661458,0.506945 0.661458,0.506945 0,0 0.01892,-5.992667 -0.143145,-6.090068 C 35.723278,13.856238 34.794363,7.8468778 30.421499,4.3656868 l 0.137459,-0.668176 -2.618962,-1.299662 C 27.703638,2.3595888 27.49099,2.3296788 27.2589,2.2929448 18.318352,-1.9045762 2.3670451,1.3191497 2.0780068,12.07735 Z"
       id="hair-path"
       inkscape:connector-curvature="0"
       sodipodi:nodetypes="cccccccccccccccccccccccccc" />
  </g>
</svg>
